<svg version="1.1" viewBox="0.0 0.0 826.0 511.0" fill="none" stroke="none" stroke-linecap="square" stroke-miterlimit="10" width="826" height="511" xmlns:xlink="http://www.w3.org/1999/xlink" xmlns="http://www.w3.org/2000/svg"><path fill="#ffffff" d="M0 0L826.0 0L826.0 511.0L0 511.0L0 0Z" fill-rule="nonzero"/><path fill="#ea4335" d="M411.3121 485.44278C302.46802 484.5134 214.85378 395.76978 215.31847 286.9227C215.78317 178.07565 304.15195 90.083336 413.0 90.083336L413.0 287.76666Z" fill-rule="nonzero"/><path fill="#4285f4" d="M413.0 90.083336C483.8265 90.083336 549.2409 127.97456 584.47943 189.41266C619.71796 250.85075 619.3952 326.4463 583.63336 387.58124C547.8715 448.71622 482.13602 486.04755 411.3121 485.44278L413.0 287.76666Z" fill-rule="nonzero"/><path fill="#ffffff" d="M460.2316 291.75143L460.2316 288.89206Q458.88785 288.50143 458.26285 287.7358Q457.63785 286.95456 457.63785 285.84518Q457.63785 284.72018 458.34097 283.97018Q459.05972 283.20456 460.2316 283.07956L460.2316 282.40768L461.21597 282.40768L461.21597 283.07956Q462.30972 283.22018 462.95035 283.82956Q463.59097 284.43893 463.77847 285.47018L462.0441 285.68893Q461.88785 284.87643 461.21597 284.59518L461.21597 287.26706Q462.8566 287.70456 463.45035 288.4233Q464.05972 289.12643 464.05972 290.2358Q464.05972 291.47018 463.30972 292.32956Q462.55972 293.1733 461.21597 293.3608L461.21597 294.64206L460.2316 294.64206L460.2316 293.39206Q459.0441 293.25143 458.30972 292.51706Q457.57535 291.76706 457.37222 290.4233L459.15347 290.2358Q459.26285 290.78268 459.55972 291.18893Q459.8566 291.57956 460.2316 291.75143ZM460.2316 284.57956Q459.82535 284.70456 459.59097 285.03268Q459.3566 285.3608 459.3566 285.76706Q459.3566 286.12643 459.57535 286.43893Q459.7941 286.75143 460.2316 286.93893L460.2316 284.57956ZM461.21597 291.84518Q461.7316 291.75143 462.0441 291.37643Q462.37222 290.9858 462.37222 290.4858Q462.37222 290.01706 462.1066 289.68893Q461.84097 289.3608 461.21597 289.18893L461.21597 291.84518ZM470.40347 293.2358L468.4816 293.2358L468.4816 286.00143Q467.4191 286.9858 465.99722 287.45456L465.99722 285.70456Q466.74722 285.47018 467.62222 284.78268Q468.51285 284.09518 468.84097 283.1733L470.40347 283.1733L470.40347 293.2358ZM476.7316 283.1733Q478.18472 283.1733 479.01285 284.20456Q479.9816 285.43893 479.9816 288.2983Q479.9816 291.14206 478.99722 292.37643Q478.18472 293.40768 476.7316 293.40768Q475.26285 293.40768 474.37222 292.28268Q473.4816 291.15768 473.4816 288.26706Q473.4816 285.43893 474.46597 284.20456Q475.27847 283.1733 476.7316 283.1733ZM476.7316 284.76706Q476.38785 284.76706 476.1066 284.9858Q475.84097 285.20456 475.68472 285.78268Q475.4816 286.53268 475.4816 288.2983Q475.4816 290.06393 475.65347 290.72018Q475.84097 291.37643 476.1066 291.59518Q476.38785 291.81393 476.7316 291.81393Q477.07535 291.81393 477.34097 291.59518Q477.62222 291.37643 477.77847 290.7983Q477.9816 290.06393 477.9816 288.2983Q477.9816 286.53268 477.7941 285.87643Q477.62222 285.20456 477.34097 284.9858Q477.07535 284.76706 476.7316 284.76706ZM481.84097 291.31393L483.76285 291.31393L483.76285 292.68893Q483.76285 293.51706 483.62222 294.00143Q483.4816 294.4858 483.07535 294.8608Q482.68472 295.25143 482.05972 295.47018L481.68472 294.6733Q482.26285 294.4858 482.51285 294.14206Q482.76285 293.81393 482.77847 293.2358L481.84097 293.2358L481.84097 291.31393ZM488.7316 283.1733Q490.18472 283.1733 491.01285 284.20456Q491.9816 285.43893 491.9816 288.2983Q491.9816 291.14206 490.99722 292.37643Q490.18472 293.40768 488.7316 293.40768Q487.26285 293.40768 486.37222 292.28268Q485.4816 291.15768 485.4816 288.26706Q485.4816 285.43893 486.46597 284.20456Q487.27847 283.1733 488.7316 283.1733ZM488.7316 284.76706Q488.38785 284.76706 488.1066 284.9858Q487.84097 285.20456 487.68472 285.78268Q487.4816 286.53268 487.4816 288.2983Q487.4816 290.06393 487.65347 290.72018Q487.84097 291.37643 488.1066 291.59518Q488.38785 291.81393 488.7316 291.81393Q489.07535 291.81393 489.34097 291.59518Q489.62222 291.37643 489.77847 290.7983Q489.9816 290.06393 489.9816 288.2983Q489.9816 286.53268 489.7941 285.87643Q489.62222 285.20456 489.34097 284.9858Q489.07535 284.76706 488.7316 284.76706ZM493.52847 290.9233L495.38785 290.72018Q495.45035 291.28268 495.7316 291.56393Q496.02847 291.82956 496.49722 291.82956Q497.09097 291.82956 497.49722 291.28268Q497.9191 290.7358 498.0441 289.01706Q497.32535 289.84518 496.2316 289.84518Q495.0441 289.84518 494.18472 288.93893Q493.32535 288.03268 493.32535 286.56393Q493.32535 285.03268 494.2316 284.1108Q495.13785 283.1733 496.5441 283.1733Q498.07535 283.1733 499.0441 284.3608Q500.02847 285.53268 500.02847 288.2358Q500.02847 290.9858 498.99722 292.20456Q497.9816 293.40768 496.3566 293.40768Q495.18472 293.40768 494.45035 292.78268Q493.7316 292.15768 493.52847 290.9233ZM497.87222 286.72018Q497.87222 285.7983 497.43472 285.28268Q497.01285 284.76706 496.45035 284.76706Q495.9191 284.76706 495.55972 285.18893Q495.21597 285.6108 495.21597 286.56393Q495.21597 287.53268 495.59097 287.9858Q495.9816 288.43893 496.55972 288.43893Q497.1066 288.43893 497.4816 288.00143Q497.87222 287.56393 497.87222 286.72018ZM505.24722 293.2358L505.24722 291.22018L501.15347 291.22018L501.15347 289.53268L505.49722 283.1733L507.1066 283.1733L507.1066 289.53268L508.3566 289.53268L508.3566 291.22018L507.1066 291.22018L507.1066 293.2358L505.24722 293.2358ZM505.24722 289.53268L505.24722 286.1108L502.95035 289.53268L505.24722 289.53268ZM509.84097 291.31393L511.76285 291.31393L511.76285 292.68893Q511.76285 293.51706 511.62222 294.00143Q511.4816 294.4858 511.07535 294.8608Q510.68472 295.25143 510.05972 295.47018L509.68472 294.6733Q510.26285 294.4858 510.51285 294.14206Q510.76285 293.81393 510.77847 293.2358L509.84097 293.2358L509.84097 291.31393ZM513.52844 290.9233L515.3878 290.72018Q515.4503 291.28268 515.73157 291.56393Q516.02844 291.82956 516.4972 291.82956Q517.09094 291.82956 517.4972 291.28268Q517.91907 290.7358 518.04407 289.01706Q517.3253 289.84518 516.23157 289.84518Q515.04407 289.84518 514.1847 288.93893Q513.3253 288.03268 513.3253 286.56393Q513.3253 285.03268 514.23157 284.1108Q515.1378 283.1733 516.54407 283.1733Q518.0753 283.1733 519.04407 284.3608Q520.02844 285.53268 520.02844 288.2358Q520.02844 290.9858 518.9972 292.20456Q517.98157 293.40768 516.35657 293.40768Q515.1847 293.40768 514.4503 292.78268Q513.73157 292.15768 513.52844 290.9233ZM517.8722 286.72018Q517.8722 285.7983 517.4347 285.28268Q517.0128 284.76706 516.4503 284.76706Q515.91907 284.76706 515.5597 285.18893Q515.21594 285.6108 515.21594 286.56393Q515.21594 287.53268 515.59094 287.9858Q515.98157 288.43893 516.5597 288.43893Q517.10657 288.43893 517.48157 288.00143Q517.8722 287.56393 517.8722 286.72018ZM526.40344 293.2358L524.48157 293.2358L524.48157 286.00143Q523.41907 286.9858 521.9972 287.45456L521.9972 285.70456Q522.7472 285.47018 523.6222 284.78268Q524.5128 284.09518 524.84094 283.1733L526.40344 283.1733L526.40344 293.2358ZM532.73157 283.1733Q534.1847 283.1733 535.0128 284.20456Q535.98157 285.43893 535.98157 288.2983Q535.98157 291.14206 534.9972 292.37643Q534.1847 293.40768 532.73157 293.40768Q531.2628 293.40768 530.3722 292.28268Q529.48157 291.15768 529.48157 288.26706Q529.48157 285.43893 530.46594 284.20456Q531.27844 283.1733 532.73157 283.1733ZM532.73157 284.76706Q532.3878 284.76706 532.10657 284.9858Q531.84094 285.20456 531.6847 285.78268Q531.48157 286.53268 531.48157 288.2983Q531.48157 290.06393 531.65344 290.72018Q531.84094 291.37643 532.10657 291.59518Q532.3878 291.81393 532.73157 291.81393Q533.0753 291.81393 533.34094 291.59518Q533.6222 291.37643 533.77844 290.7983Q533.98157 290.06393 533.98157 288.2983Q533.98157 286.53268 533.79407 285.87643Q533.6222 285.20456 533.34094 284.9858Q533.0753 284.76706 532.73157 284.76706ZM545.0753 296.18893L543.7628 296.18893Q542.71594 294.6108 542.16907 292.90768Q541.6222 291.20456 541.6222 289.6108Q541.6222 287.62643 542.29407 285.8608Q542.8878 284.32956 543.79407 283.0483L545.10657 283.0483Q544.16907 285.1108 543.8097 286.56393Q543.46594 288.01706 543.46594 289.64206Q543.46594 290.76706 543.66907 291.95456Q543.8722 293.12643 544.23157 294.1733Q544.48157 294.87643 545.0753 296.18893ZM546.5128 290.65768L548.41907 290.45456Q548.5128 291.1108 548.90344 291.4858Q549.3097 291.8608 549.84094 291.8608Q550.4347 291.8608 550.85657 291.37643Q551.27844 290.89206 551.27844 289.90768Q551.27844 288.9858 550.85657 288.53268Q550.4503 288.06393 549.77844 288.06393Q548.9503 288.06393 548.29407 288.7983L546.7472 288.56393L547.73157 283.34518L552.8097 283.34518L552.8097 285.14206L549.1847 285.14206L548.8878 286.84518Q549.52844 286.53268 550.2003 286.53268Q551.46594 286.53268 552.35657 287.47018Q553.2472 288.39206 553.2472 289.87643Q553.2472 291.1108 552.52844 292.07956Q551.5597 293.40768 549.8253 293.40768Q548.4347 293.40768 547.5597 292.6733Q546.6847 291.9233 546.5128 290.65768ZM557.73157 283.1733Q559.1847 283.1733 560.0128 284.20456Q560.98157 285.43893 560.98157 288.2983Q560.98157 291.14206 559.9972 292.37643Q559.1847 293.40768 557.73157 293.40768Q556.2628 293.40768 555.3722 292.28268Q554.48157 291.15768 554.48157 288.26706Q554.48157 285.43893 555.46594 284.20456Q556.27844 283.1733 557.73157 283.1733ZM557.73157 284.76706Q557.3878 284.76706 557.10657 284.9858Q556.84094 285.20456 556.6847 285.78268Q556.48157 286.53268 556.48157 288.2983Q556.48157 290.06393 556.65344 290.72018Q556.84094 291.37643 557.10657 291.59518Q557.3878 291.81393 557.73157 291.81393Q558.0753 291.81393 558.34094 291.59518Q558.6222 291.37643 558.77844 290.7983Q558.98157 290.06393 558.98157 288.2983Q558.98157 286.53268 558.79407 285.87643Q558.6222 285.20456 558.34094 284.9858Q558.0753 284.76706 557.73157 284.76706ZM562.8878 293.2358L562.8878 291.31393L564.8097 291.31393L564.8097 293.2358L562.8878 293.2358ZM571.40344 293.2358L569.48157 293.2358L569.48157 286.00143Q568.41907 286.9858 566.9972 287.45456L566.9972 285.70456Q567.7472 285.47018 568.6222 284.78268Q569.5128 284.09518 569.84094 283.1733L571.40344 283.1733L571.40344 293.2358ZM574.4972 285.68893Q574.4972 284.34518 575.09094 283.70456Q575.6847 283.0483 576.6847 283.0483Q577.73157 283.0483 578.3253 283.68893Q578.91907 284.32956 578.91907 285.68893Q578.91907 287.03268 578.3253 287.68893Q577.73157 288.32956 576.73157 288.32956Q575.6847 288.32956 575.09094 287.68893Q574.4972 287.0483 574.4972 285.68893ZM575.9972 285.6733Q575.9972 286.65768 576.21594 286.9858Q576.3878 287.2358 576.6847 287.2358Q576.9972 287.2358 577.16907 286.9858Q577.3878 286.65768 577.3878 285.6733Q577.3878 284.70456 577.16907 284.37643Q576.9972 284.1108 576.6847 284.1108Q576.3878 284.1108 576.21594 284.3608Q575.9972 284.70456 575.9972 285.6733ZM578.15344 293.62643L576.73157 293.62643L582.0753 283.0483L583.4503 283.0483L578.15344 293.62643ZM581.2628 290.9858Q581.2628 289.64206 581.84094 289.00143Q582.4347 288.34518 583.46594 288.34518Q584.4972 288.34518 585.09094 289.00143Q585.6847 289.64206 585.6847 290.9858Q585.6847 292.34518 585.09094 293.00143Q584.4972 293.64206 583.48157 293.64206Q582.4347 293.64206 581.84094 293.00143Q581.2628 292.34518 581.2628 290.9858ZM582.7472 290.9858Q582.7472 291.95456 582.98157 292.28268Q583.15344 292.53268 583.4503 292.53268Q583.7628 292.53268 583.91907 292.2983Q584.15344 291.95456 584.15344 290.9858Q584.15344 290.00143 583.9347 289.6733Q583.7628 289.4233 583.4503 289.4233Q583.1378 289.4233 582.98157 289.6733Q582.7472 290.00143 582.7472 290.9858ZM584.35657 296.18893Q584.9347 294.97018 585.15344 294.31393Q585.3878 293.6733 585.59094 292.82956Q585.79407 291.97018 585.8878 291.20456Q585.98157 290.43893 585.98157 289.64206Q585.98157 288.01706 585.6222 286.56393Q585.27844 285.1108 584.34094 283.0483L585.65344 283.0483Q586.6847 284.51706 587.2472 286.1733Q587.8253 287.81393 587.8253 289.50143Q587.8253 290.93893 587.3722 292.56393Q586.85657 294.39206 585.6847 296.18893L584.35657 296.18893Z" fill-rule="nonzero"/><path fill="#ffffff" d="M240.45589 290.81314L240.45589 287.95377Q239.11214 287.56314 238.48714 286.79752Q237.86214 286.01627 237.86214 284.9069Q237.86214 283.7819 238.56526 283.0319Q239.28401 282.26627 240.45589 282.14127L240.45589 281.4694L241.44026 281.4694L241.44026 282.14127Q242.53401 282.2819 243.17464 282.89127Q243.81526 283.50064 244.00276 284.5319L242.26839 284.75064Q242.11214 283.93814 241.44026 283.6569L241.44026 286.32877Q243.08089 286.76627 243.67464 287.48502Q244.28401 288.18814 244.28401 289.29752Q244.28401 290.5319 243.53401 291.39127Q242.78401 292.23502 241.44026 292.42252L241.44026 293.70377L240.45589 293.70377L240.45589 292.45377Q239.26839 292.31314 238.53401 291.57877Q237.79964 290.82877 237.59651 289.48502L239.37776 289.29752Q239.48714 289.8444 239.78401 290.25064Q240.08089 290.64127 240.45589 290.81314ZM240.45589 283.64127Q240.04964 283.76627 239.81526 284.0944Q239.58089 284.42252 239.58089 284.82877Q239.58089 285.18814 239.79964 285.50064Q240.01839 285.81314 240.45589 286.00064L240.45589 283.64127ZM241.44026 290.9069Q241.95589 290.81314 242.26839 290.43814Q242.59651 290.04752 242.59651 289.54752Q242.59651 289.07877 242.33089 288.75064Q242.06526 288.42252 241.44026 288.25064L241.44026 290.9069ZM250.62776 292.29752L248.70589 292.29752L248.70589 285.06314Q247.64339 286.04752 246.22151 286.51627L246.22151 284.76627Q246.97151 284.5319 247.84651 283.8444Q248.73714 283.1569 249.06526 282.23502L250.62776 282.23502L250.62776 292.29752ZM256.95587 282.23502Q258.409 282.23502 259.23712 283.26627Q260.20587 284.50064 260.20587 287.36002Q260.20587 290.20377 259.2215 291.43814Q258.409 292.4694 256.95587 292.4694Q255.48714 292.4694 254.59651 291.3444Q253.70589 290.2194 253.70589 287.32877Q253.70589 284.50064 254.69026 283.26627Q255.50276 282.23502 256.95587 282.23502ZM256.95587 283.82877Q256.61212 283.82877 256.33087 284.04752Q256.06525 284.26627 255.90901 284.8444Q255.70589 285.5944 255.70589 287.36002Q255.70589 289.12564 255.87776 289.7819Q256.06525 290.43814 256.33087 290.6569Q256.61212 290.87564 256.95587 290.87564Q257.29962 290.87564 257.56525 290.6569Q257.8465 290.43814 258.00275 289.86002Q258.20587 289.12564 258.20587 287.36002Q258.20587 285.5944 258.01837 284.93814Q257.8465 284.26627 257.56525 284.04752Q257.29962 283.82877 256.95587 283.82877ZM262.06525 290.37564L263.98712 290.37564L263.98712 291.75064Q263.98712 292.57877 263.8465 293.06314Q263.70587 293.54752 263.29962 293.92252Q262.909 294.31314 262.284 294.5319L261.909 293.73502Q262.48712 293.54752 262.73712 293.20377Q262.98712 292.87564 263.00275 292.29752L262.06525 292.29752L262.06525 290.37564ZM268.95587 282.23502Q270.409 282.23502 271.23712 283.26627Q272.20587 284.50064 272.20587 287.36002Q272.20587 290.20377 271.2215 291.43814Q270.409 292.4694 268.95587 292.4694Q267.48712 292.4694 266.5965 291.3444Q265.70587 290.2194 265.70587 287.32877Q265.70587 284.50064 266.69025 283.26627Q267.50275 282.23502 268.95587 282.23502ZM268.95587 283.82877Q268.61212 283.82877 268.33087 284.04752Q268.06525 284.26627 267.909 284.8444Q267.70587 285.5944 267.70587 287.36002Q267.70587 289.12564 267.87775 289.7819Q268.06525 290.43814 268.33087 290.6569Q268.61212 290.87564 268.95587 290.87564Q269.29962 290.87564 269.56525 290.6569Q269.8465 290.43814 270.00275 289.86002Q270.20587 289.12564 270.20587 287.36002Q270.20587 285.5944 270.01837 284.93814Q269.8465 284.26627 269.56525 284.04752Q269.29962 283.82877 268.95587 283.82877ZM277.4715 292.29752L277.4715 290.2819L273.37775 290.2819L273.37775 288.5944L277.7215 282.23502L279.33087 282.23502L279.33087 288.5944L280.58087 288.5944L280.58087 290.2819L279.33087 290.2819L279.33087 292.29752L277.4715 292.29752ZM277.4715 288.5944L277.4715 285.17252L275.17462 288.5944L277.4715 288.5944ZM284.95587 282.23502Q286.409 282.23502 287.23712 283.26627Q288.20587 284.50064 288.20587 287.36002Q288.20587 290.20377 287.2215 291.43814Q286.409 292.4694 284.95587 292.4694Q283.48712 292.4694 282.5965 291.3444Q281.70587 290.2194 281.70587 287.32877Q281.70587 284.50064 282.69025 283.26627Q283.50275 282.23502 284.95587 282.23502ZM284.95587 283.82877Q284.61212 283.82877 284.33087 284.04752Q284.06525 284.26627 283.909 284.8444Q283.70587 285.5944 283.70587 287.36002Q283.70587 289.12564 283.87775 289.7819Q284.06525 290.43814 284.33087 290.6569Q284.61212 290.87564 284.95587 290.87564Q285.29962 290.87564 285.56525 290.6569Q285.8465 290.43814 286.00275 289.86002Q286.20587 289.12564 286.20587 287.36002Q286.20587 285.5944 286.01837 284.93814Q285.8465 284.26627 285.56525 284.04752Q285.29962 283.82877 284.95587 283.82877ZM290.06525 290.37564L291.98712 290.37564L291.98712 291.75064Q291.98712 292.57877 291.8465 293.06314Q291.70587 293.54752 291.29962 293.92252Q290.909 294.31314 290.284 294.5319L289.909 293.73502Q290.48712 293.54752 290.73712 293.20377Q290.98712 292.87564 291.00275 292.29752L290.06525 292.29752L290.06525 290.37564ZM298.62775 292.29752L296.70587 292.29752L296.70587 285.06314Q295.64337 286.04752 294.2215 286.51627L294.2215 284.76627Q294.9715 284.5319 295.8465 283.8444Q296.73712 283.1569 297.06525 282.23502L298.62775 282.23502L298.62775 292.29752ZM303.36212 286.89127Q302.61212 286.57877 302.26837 286.0319Q301.94025 285.4694 301.94025 284.81314Q301.94025 283.70377 302.7215 282.9694Q303.50275 282.23502 304.94025 282.23502Q306.36212 282.23502 307.159 282.9694Q307.95587 283.70377 307.95587 284.81314Q307.95587 285.51627 307.58087 286.06314Q307.2215 286.61002 306.56525 286.89127Q307.409 287.2194 307.83087 287.87564Q308.26837 288.51627 308.26837 289.3444Q308.26837 290.73502 307.37775 291.61002Q306.50275 292.4694 305.034 292.4694Q303.659 292.4694 302.75275 291.75064Q301.67462 290.9069 301.67462 289.43814Q301.67462 288.62564 302.08087 287.95377Q302.48712 287.26627 303.36212 286.89127ZM303.75275 284.95377Q303.75275 285.5319 304.06525 285.86002Q304.39337 286.17252 304.94025 286.17252Q305.48712 286.17252 305.81525 285.8444Q306.14337 285.51627 306.14337 284.95377Q306.14337 284.4069 305.81525 284.0944Q305.48712 283.76627 304.95587 283.76627Q304.409 283.76627 304.08087 284.0944Q303.75275 284.42252 303.75275 284.95377ZM303.58087 289.25064Q303.58087 290.04752 303.98712 290.48502Q304.39337 290.92252 305.00275 290.92252Q305.5965 290.92252 305.9715 290.50064Q306.36212 290.07877 306.36212 289.26627Q306.36212 288.56314 305.9715 288.14127Q305.58087 287.70377 304.9715 287.70377Q304.26837 287.70377 303.92462 288.20377Q303.58087 288.68814 303.58087 289.25064ZM313.4715 292.29752L313.4715 290.2819L309.37775 290.2819L309.37775 288.5944L313.7215 282.23502L315.33087 282.23502L315.33087 288.5944L316.58087 288.5944L316.58087 290.2819L315.33087 290.2819L315.33087 292.29752L313.4715 292.29752ZM313.4715 288.5944L313.4715 285.17252L311.17462 288.5944L313.4715 288.5944ZM325.29962 295.25064L323.98712 295.25064Q322.94025 293.67252 322.39337 291.9694Q321.8465 290.26627 321.8465 288.67252Q321.8465 286.68814 322.51837 284.92252Q323.11212 283.39127 324.01837 282.11002L325.33087 282.11002Q324.39337 284.17252 324.034 285.62564Q323.69025 287.07877 323.69025 288.70377Q323.69025 289.82877 323.89337 291.01627Q324.0965 292.18814 324.45587 293.23502Q324.70587 293.93814 325.29962 295.25064ZM330.4715 292.29752L330.4715 290.2819L326.37775 290.2819L326.37775 288.5944L330.7215 282.23502L332.33087 282.23502L332.33087 288.5944L333.58087 288.5944L333.58087 290.2819L332.33087 290.2819L332.33087 292.29752L330.4715 292.29752ZM330.4715 288.5944L330.4715 285.17252L328.17462 288.5944L330.4715 288.5944ZM334.75275 289.98502L336.61212 289.7819Q336.67462 290.3444 336.95587 290.62564Q337.25275 290.89127 337.7215 290.89127Q338.31525 290.89127 338.7215 290.3444Q339.14337 289.79752 339.26837 288.07877Q338.54962 288.9069 337.45587 288.9069Q336.26837 288.9069 335.409 288.00064Q334.54962 287.0944 334.54962 285.62564Q334.54962 284.0944 335.45587 283.17252Q336.36212 282.23502 337.76837 282.23502Q339.29962 282.23502 340.26837 283.42252Q341.25275 284.5944 341.25275 287.29752Q341.25275 290.04752 340.2215 291.26627Q339.20587 292.4694 337.58087 292.4694Q336.409 292.4694 335.67462 291.8444Q334.95587 291.2194 334.75275 289.98502ZM339.0965 285.7819Q339.0965 284.86002 338.659 284.3444Q338.23712 283.82877 337.67462 283.82877Q337.14337 283.82877 336.784 284.25064Q336.44025 284.67252 336.44025 285.62564Q336.44025 286.5944 336.81525 287.04752Q337.20587 287.50064 337.784 287.50064Q338.33087 287.50064 338.70587 287.06314Q339.0965 286.62564 339.0965 285.7819ZM343.11212 292.29752L343.11212 290.37564L345.034 290.37564L345.034 292.29752L343.11212 292.29752ZM346.75275 289.98502L348.61212 289.7819Q348.67462 290.3444 348.95587 290.62564Q349.25275 290.89127 349.7215 290.89127Q350.31525 290.89127 350.7215 290.3444Q351.14337 289.79752 351.26837 288.07877Q350.54962 288.9069 349.45587 288.9069Q348.26837 288.9069 347.409 288.00064Q346.54962 287.0944 346.54962 285.62564Q346.54962 284.0944 347.45587 283.17252Q348.36212 282.23502 349.76837 282.23502Q351.29962 282.23502 352.26837 283.42252Q353.25275 284.5944 353.25275 287.29752Q353.25275 290.04752 352.2215 291.26627Q351.20587 292.4694 349.58087 292.4694Q348.409 292.4694 347.67462 291.8444Q346.95587 291.2194 346.75275 289.98502ZM351.0965 285.7819Q351.0965 284.86002 350.659 284.3444Q350.23712 283.82877 349.67462 283.82877Q349.14337 283.82877 348.784 284.25064Q348.44025 284.67252 348.44025 285.62564Q348.44025 286.5944 348.81525 287.04752Q349.20587 287.50064 349.784 287.50064Q350.33087 287.50064 350.70587 287.06314Q351.0965 286.62564 351.0965 285.7819ZM354.7215 284.75064Q354.7215 283.4069 355.31525 282.76627Q355.909 282.11002 356.909 282.11002Q357.95587 282.11002 358.54962 282.75064Q359.14337 283.39127 359.14337 284.75064Q359.14337 286.0944 358.54962 286.75064Q357.95587 287.39127 356.95587 287.39127Q355.909 287.39127 355.31525 286.75064Q354.7215 286.11002 354.7215 284.75064ZM356.2215 284.73502Q356.2215 285.7194 356.44025 286.04752Q356.61212 286.29752 356.909 286.29752Q357.2215 286.29752 357.39337 286.04752Q357.61212 285.7194 357.61212 284.73502Q357.61212 283.76627 357.39337 283.43814Q357.2215 283.17252 356.909 283.17252Q356.61212 283.17252 356.44025 283.42252Q356.2215 283.76627 356.2215 284.73502ZM358.37775 292.68814L356.95587 292.68814L362.29962 282.11002L363.67462 282.11002L358.37775 292.68814ZM361.48712 290.04752Q361.48712 288.70377 362.06525 288.06314Q362.659 287.4069 363.69025 287.4069Q364.7215 287.4069 365.31525 288.06314Q365.909 288.70377 365.909 290.04752Q365.909 291.4069 365.31525 292.06314Q364.7215 292.70377 363.70587 292.70377Q362.659 292.70377 362.06525 292.06314Q361.48712 291.4069 361.48712 290.04752ZM362.9715 290.04752Q362.9715 291.01627 363.20587 291.3444Q363.37775 291.5944 363.67462 291.5944Q363.98712 291.5944 364.14337 291.36002Q364.37775 291.01627 364.37775 290.04752Q364.37775 289.06314 364.159 288.73502Q363.98712 288.48502 363.67462 288.48502Q363.36212 288.48502 363.20587 288.73502Q362.9715 289.06314 362.9715 290.04752ZM364.58087 295.25064Q365.159 294.0319 365.37775 293.37564Q365.61212 292.73502 365.81525 291.89127Q366.01837 291.0319 366.11212 290.26627Q366.20587 289.50064 366.20587 288.70377Q366.20587 287.07877 365.8465 285.62564Q365.50275 284.17252 364.56525 282.11002L365.87775 282.11002Q366.909 283.57877 367.4715 285.23502Q368.04962 286.87564 368.04962 288.56314Q368.04962 290.00064 367.5965 291.62564Q367.08087 293.45377 365.909 295.25064L364.58087 295.25064Z" fill-rule="nonzero"/><path fill="#1a1a1a" d="M32.6125 279.44928L33.7375 279.74615Q33.378124 281.13678 32.45625 281.87115Q31.534374 282.60553 30.190624 282.60553Q28.8 282.60553 27.925 282.04303Q27.05 281.48053 26.596874 280.41803Q26.14375 279.3399 26.14375 278.10553Q26.14375 276.76178 26.659374 275.76178Q27.175 274.76178 28.1125 274.24615Q29.065624 273.73053 30.20625 273.73053Q31.4875 273.73053 32.3625 274.38678Q33.253124 275.04303 33.596874 276.23053L32.471874 276.49615Q32.175 275.55865 31.596874 275.13678Q31.034374 274.69928 30.175 274.69928Q29.190624 274.69928 28.51875 275.18365Q27.8625 275.6524 27.58125 276.44928Q27.315624 277.24615 27.315624 278.10553Q27.315624 279.19928 27.628124 280.01178Q27.95625 280.82428 28.628124 281.23053Q29.3 281.63678 30.096874 281.63678Q31.05 281.63678 31.70625 281.0899Q32.378124 280.54303 32.6125 279.44928ZM39.409374 281.69928Q38.815624 282.19928 38.26875 282.4024Q37.7375 282.60553 37.1125 282.60553Q36.08125 282.60553 35.534374 282.10553Q34.9875 281.60553 34.9875 280.82428Q34.9875 280.37115 35.190624 279.99615Q35.39375 279.60553 35.7375 279.38678Q36.08125 279.1524 36.503124 279.04303Q36.8 278.94928 37.440624 278.87115Q38.70625 278.73053 39.315624 278.51178Q39.315624 278.29303 39.315624 278.24615Q39.315624 277.5899 39.01875 277.32428Q38.6125 276.98053 37.815624 276.98053Q37.08125 276.98053 36.721874 277.24615Q36.3625 277.49615 36.190624 278.1524L35.159374 278.01178Q35.3 277.35553 35.628124 276.94928Q35.95625 276.54303 36.565624 276.32428Q37.175 276.10553 37.971874 276.10553Q38.76875 276.10553 39.26875 276.29303Q39.76875 276.48053 40.003124 276.76178Q40.2375 277.04303 40.33125 277.48053Q40.378124 277.74615 40.378124 278.44928L40.378124 279.85553Q40.378124 281.32428 40.440624 281.7149Q40.51875 282.10553 40.721874 282.4649L39.6125 282.4649Q39.45625 282.13678 39.409374 281.69928ZM39.315624 279.3399Q38.7375 279.57428 37.596874 279.74615Q36.940624 279.8399 36.675 279.9649Q36.409374 280.07428 36.253124 280.29303Q36.1125 280.51178 36.1125 280.79303Q36.1125 281.2149 36.425 281.49615Q36.753124 281.7774 37.3625 281.7774Q37.971874 281.7774 38.440624 281.51178Q38.925 281.24615 39.14375 280.7774Q39.315624 280.41803 39.315624 279.73053L39.315624 279.3399ZM41.925 280.60553L42.95625 280.44928Q43.05 281.07428 43.440624 281.4024Q43.846874 281.73053 44.58125 281.73053Q45.3 281.73053 45.64375 281.44928Q46.003124 281.1524 46.003124 280.74615Q46.003124 280.38678 45.690624 280.18365Q45.471874 280.04303 44.6125 279.82428Q43.45625 279.5274 43.003124 279.32428Q42.565624 279.10553 42.33125 278.73053Q42.096874 278.35553 42.096874 277.88678Q42.096874 277.48053 42.284374 277.12115Q42.471874 276.76178 42.8 276.5274Q43.05 276.35553 43.471874 276.23053Q43.89375 276.10553 44.39375 276.10553Q45.1125 276.10553 45.659374 276.32428Q46.221874 276.5274 46.4875 276.88678Q46.753124 277.24615 46.846874 277.8399L45.815624 277.98053Q45.753124 277.51178 45.409374 277.24615Q45.08125 276.9649 44.45625 276.9649Q43.7375 276.9649 43.425 277.2149Q43.1125 277.44928 43.1125 277.7774Q43.1125 277.98053 43.2375 278.13678Q43.378124 278.30865 43.64375 278.41803Q43.8 278.48053 44.58125 278.68365Q45.70625 278.99615 46.14375 279.18365Q46.58125 279.37115 46.83125 279.73053Q47.08125 280.0899 47.08125 280.63678Q47.08125 281.16803 46.76875 281.63678Q46.471874 282.0899 45.89375 282.35553Q45.315624 282.60553 44.58125 282.60553Q43.3625 282.60553 42.721874 282.10553Q42.096874 281.5899 41.925 280.60553ZM53.425 282.4649L53.425 281.54303Q52.690624 282.60553 51.440624 282.60553Q50.89375 282.60553 50.409374 282.4024Q49.940624 282.18365 49.70625 281.87115Q49.471874 281.54303 49.378124 281.07428Q49.315624 280.7774 49.315624 280.0899L49.315624 276.24615L50.378124 276.24615L50.378124 279.69928Q50.378124 280.51178 50.440624 280.80865Q50.534374 281.2149 50.846874 281.4649Q51.175 281.69928 51.659374 281.69928Q52.128124 281.69928 52.534374 281.4649Q52.95625 281.2149 53.128124 280.79303Q53.315624 280.37115 53.315624 279.57428L53.315624 276.24615L54.3625 276.24615L54.3625 282.4649L53.425 282.4649ZM60.409374 281.69928Q59.815624 282.19928 59.26875 282.4024Q58.7375 282.60553 58.1125 282.60553Q57.08125 282.60553 56.534374 282.10553Q55.9875 281.60553 55.9875 280.82428Q55.9875 280.37115 56.190624 279.99615Q56.39375 279.60553 56.7375 279.38678Q57.08125 279.1524 57.503124 279.04303Q57.8 278.94928 58.440624 278.87115Q59.70625 278.73053 60.315624 278.51178Q60.315624 278.29303 60.315624 278.24615Q60.315624 277.5899 60.01875 277.32428Q59.6125 276.98053 58.815624 276.98053Q58.08125 276.98053 57.721874 277.24615Q57.3625 277.49615 57.190624 278.1524L56.159374 278.01178Q56.3 277.35553 56.628124 276.94928Q56.95625 276.54303 57.565624 276.32428Q58.175 276.10553 58.971874 276.10553Q59.76875 276.10553 60.26875 276.29303Q60.76875 276.48053 61.003124 276.76178Q61.2375 277.04303 61.33125 277.48053Q61.378124 277.74615 61.378124 278.44928L61.378124 279.85553Q61.378124 281.32428 61.440624 281.7149Q61.51875 282.10553 61.721874 282.4649L60.6125 282.4649Q60.45625 282.13678 60.409374 281.69928ZM60.315624 279.3399Q59.7375 279.57428 58.596874 279.74615Q57.940624 279.8399 57.675 279.9649Q57.409374 280.07428 57.253124 280.29303Q57.1125 280.51178 57.1125 280.79303Q57.1125 281.2149 57.425 281.49615Q57.753124 281.7774 58.3625 281.7774Q58.971874 281.7774 59.440624 281.51178Q59.925 281.24615 60.14375 280.7774Q60.315624 280.41803 60.315624 279.73053L60.315624 279.3399ZM63.315624 282.4649L63.315624 273.87115L64.37813 273.87115L64.37813 282.4649L63.315624 282.4649Z" fill-rule="nonzero"/><path fill="#9e9e9e" d="M29.425 299.4649L29.425 297.4024L25.70625 297.4024L25.70625 296.43365L29.628124 290.87115L30.4875 290.87115L30.4875 296.43365L31.64375 296.43365L31.64375 297.4024L30.4875 297.4024L30.4875 299.4649L29.425 299.4649ZM29.425 296.43365L29.425 292.57428L26.7375 296.43365L29.425 296.43365ZM33.20625 297.48053L34.221874 297.38678Q34.346874 298.10553 34.70625 298.43365Q35.08125 298.74615 35.64375 298.74615Q36.128124 298.74615 36.4875 298.5274Q36.8625 298.29303 37.096874 297.93365Q37.33125 297.55865 37.4875 296.93365Q37.64375 296.29303 37.64375 295.63678Q37.64375 295.55865 37.64375 295.41803Q37.33125 295.91803 36.784374 296.24615Q36.2375 296.55865 35.596874 296.55865Q34.51875 296.55865 33.784374 295.79303Q33.05 295.01178 33.05 293.74615Q33.05 292.43365 33.815624 291.63678Q34.596874 290.8399 35.753124 290.8399Q36.58125 290.8399 37.26875 291.29303Q37.971874 291.74615 38.33125 292.5899Q38.690624 293.41803 38.690624 294.99615Q38.690624 296.63678 38.33125 297.62115Q37.9875 298.5899 37.26875 299.10553Q36.565624 299.60553 35.628124 299.60553Q34.6125 299.60553 33.971874 299.05865Q33.33125 298.49615 33.20625 297.48053ZM37.51875 293.68365Q37.51875 292.7774 37.034374 292.24615Q36.565624 291.7149 35.878124 291.7149Q35.175 291.7149 34.64375 292.29303Q34.128124 292.85553 34.128124 293.7774Q34.128124 294.5899 34.628124 295.10553Q35.128124 295.62115 35.846874 295.62115Q36.58125 295.62115 37.05 295.10553Q37.51875 294.5899 37.51875 293.68365ZM40.64375 299.4649L40.64375 298.26178L41.846874 298.26178L41.846874 299.4649L40.64375 299.4649ZM43.20625 297.48053L44.221874 297.38678Q44.346874 298.10553 44.70625 298.43365Q45.08125 298.74615 45.64375 298.74615Q46.128124 298.74615 46.4875 298.5274Q46.8625 298.29303 47.096874 297.93365Q47.33125 297.55865 47.4875 296.93365Q47.64375 296.29303 47.64375 295.63678Q47.64375 295.55865 47.64375 295.41803Q47.33125 295.91803 46.784374 296.24615Q46.2375 296.55865 45.596874 296.55865Q44.51875 296.55865 43.784374 295.79303Q43.05 295.01178 43.05 293.74615Q43.05 292.43365 43.815624 291.63678Q44.596874 290.8399 45.753124 290.8399Q46.58125 290.8399 47.26875 291.29303Q47.971874 291.74615 48.33125 292.5899Q48.690624 293.41803 48.690624 294.99615Q48.690624 296.63678 48.33125 297.62115Q47.9875 298.5899 47.26875 299.10553Q46.565624 299.60553 45.628124 299.60553Q44.6125 299.60553 43.971874 299.05865Q43.33125 298.49615 43.20625 297.48053ZM47.51875 293.68365Q47.51875 292.7774 47.034374 292.24615Q46.565624 291.7149 45.878124 291.7149Q45.175 291.7149 44.64375 292.29303Q44.128124 292.85553 44.128124 293.7774Q44.128124 294.5899 44.628124 295.10553Q45.128124 295.62115 45.846874 295.62115Q46.58125 295.62115 47.05 295.10553Q47.51875 294.5899 47.51875 293.68365ZM50.253124 292.93365Q50.253124 292.01178 50.70625 291.37115Q51.175 290.73053 52.05 290.73053Q52.8625 290.73053 53.39375 291.30865Q53.925 291.88678 53.925 292.99615Q53.925 294.0899 53.378124 294.68365Q52.846874 295.26178 52.065624 295.26178Q51.284374 295.26178 50.76875 294.68365Q50.253124 294.10553 50.253124 292.93365ZM52.08125 291.44928Q51.690624 291.44928 51.425 291.79303Q51.175 292.13678 51.175 293.04303Q51.175 293.87115 51.425 294.2149Q51.690624 294.54303 52.08125 294.54303Q52.4875 294.54303 52.7375 294.19928Q53.003124 293.85553 53.003124 292.9649Q53.003124 292.12115 52.7375 291.79303Q52.471874 291.44928 52.08125 291.44928ZM52.08125 299.7774L56.784374 290.73053L57.64375 290.73053L52.95625 299.7774L52.08125 299.7774ZM55.8 297.44928Q55.8 296.5274 56.253124 295.88678Q56.721874 295.24615 57.6125 295.24615Q58.425 295.24615 58.95625 295.82428Q59.4875 296.38678 59.4875 297.51178Q59.4875 298.60553 58.940624 299.19928Q58.409374 299.7774 57.6125 299.7774Q56.846874 299.7774 56.315624 299.19928Q55.8 298.62115 55.8 297.44928ZM57.64375 295.9649Q57.2375 295.9649 56.971874 296.30865Q56.721874 296.6524 56.721874 297.55865Q56.721874 298.37115 56.9875 298.7149Q57.253124 299.05865 57.64375 299.05865Q58.034374 299.05865 58.3 298.7149Q58.565624 298.37115 58.565624 297.4649Q58.565624 296.63678 58.3 296.30865Q58.034374 295.9649 57.64375 295.9649Z" fill-rule="nonzero"/><path stroke="#757575" stroke-width="1.0" stroke-linecap="butt" d="M25.55 286.9649L209.31667 286.9649L225.20255 286.9649" fill-rule="nonzero"/><path fill="#9e9e9e" d="M227.20255 286.9649C227.20255 285.86032 226.30711 284.9649 225.20255 284.9649C224.09798 284.9649 223.20255 285.86032 223.20255 286.9649C223.20255 288.06946 224.09798 288.9649 225.20255 288.9649C226.30711 288.9649 227.20255 288.06946 227.20255 286.9649" fill-rule="nonzero"/><path fill="#1a1a1a" d="M756.34064 284.06842L756.34064 275.47467L758.0594 275.47467L760.09064 281.5528Q760.3719 282.41217 760.4969 282.83405Q760.6375 282.3653 760.95 281.45905L763.0125 275.47467L764.54376 275.47467L764.54376 284.06842L763.45 284.06842L763.45 276.88092L760.95 284.06842L759.91876 284.06842L757.4344 276.75592L757.4344 284.06842L756.34064 284.06842ZM769.4969 282.06842L770.59064 282.19342Q770.34064 283.14655 769.6375 283.6778Q768.9344 284.20905 767.85626 284.20905Q766.4969 284.20905 765.6844 283.3653Q764.8875 282.52155 764.8875 281.00592Q764.8875 279.44342 765.7 278.58405Q766.5125 277.70905 767.79376 277.70905Q769.04376 277.70905 769.825 278.5528Q770.6219 279.39655 770.6219 280.94342Q770.6219 281.03717 770.6219 281.22467L765.98126 281.22467Q766.04376 282.25592 766.5594 282.8028Q767.075 283.33405 767.85626 283.33405Q768.4344 283.33405 768.84064 283.03717Q769.2625 282.72467 769.4969 282.06842ZM766.04376 280.3653L769.5125 280.3653Q769.45 279.56842 769.1219 279.1778Q768.60626 278.56842 767.8094 278.56842Q767.075 278.56842 766.575 279.0528Q766.09064 279.53717 766.04376 280.3653ZM772.2469 284.06842L772.2469 277.84967L773.1844 277.84967L773.1844 278.72467Q773.48126 278.25592 773.96564 277.9903Q774.45 277.70905 775.075 277.70905Q775.7625 277.70905 776.2 277.9903Q776.65314 278.27155 776.825 278.78717Q777.575 277.70905 778.7469 277.70905Q779.6844 277.70905 780.16876 278.22467Q780.66876 278.72467 780.66876 279.8028L780.66876 284.06842L779.6219 284.06842L779.6219 280.14655Q779.6219 279.52155 779.5125 279.2403Q779.41876 278.95905 779.15314 278.78717Q778.8875 278.6153 778.5125 278.6153Q777.85626 278.6153 777.41876 279.0528Q776.9969 279.4903 776.9969 280.45905L776.9969 284.06842L775.9344 284.06842L775.9344 280.02155Q775.9344 279.31842 775.66876 278.97467Q775.41876 278.6153 774.84064 278.6153Q774.3875 278.6153 774.0125 278.84967Q773.6375 279.08405 773.46564 279.53717Q773.29376 279.9903 773.29376 280.83405L773.29376 284.06842L772.2469 284.06842ZM784.21564 284.06842L783.23126 284.06842L783.23126 275.47467L784.29376 275.47467L784.29376 278.53717Q784.96564 277.70905 785.9969 277.70905Q786.575 277.70905 787.075 277.94342Q787.59064 278.16217 787.91876 278.58405Q788.2625 279.00592 788.45 279.59967Q788.6375 280.19342 788.6375 280.8653Q788.6375 282.45905 787.84064 283.33405Q787.04376 284.20905 785.95 284.20905Q784.84064 284.20905 784.21564 283.28717L784.21564 284.06842ZM784.2 280.91217Q784.2 282.02155 784.5125 282.52155Q785.0125 283.33405 785.85626 283.33405Q786.54376 283.33405 787.04376 282.7403Q787.5594 282.14655 787.5594 280.94342Q787.5594 279.72467 787.075 279.14655Q786.59064 278.56842 785.90314 278.56842Q785.21564 278.56842 784.7 279.1778Q784.2 279.77155 784.2 280.91217ZM794.4969 282.06842L795.59064 282.19342Q795.34064 283.14655 794.6375 283.6778Q793.9344 284.20905 792.85626 284.20905Q791.4969 284.20905 790.6844 283.3653Q789.8875 282.52155 789.8875 281.00592Q789.8875 279.44342 790.7 278.58405Q791.5125 277.70905 792.79376 277.70905Q794.04376 277.70905 794.825 278.5528Q795.6219 279.39655 795.6219 280.94342Q795.6219 281.03717 795.6219 281.22467L790.98126 281.22467Q791.04376 282.25592 791.5594 282.8028Q792.075 283.33405 792.85626 283.33405Q793.4344 283.33405 793.84064 283.03717Q794.2625 282.72467 794.4969 282.06842ZM791.04376 280.3653L794.5125 280.3653Q794.45 279.56842 794.1219 279.1778Q793.60626 278.56842 792.8094 278.56842Q792.075 278.56842 791.575 279.0528Q791.09064 279.53717 791.04376 280.3653ZM797.23126 284.06842L797.23126 277.84967L798.1844 277.84967L798.1844 278.78717Q798.54376 278.13092 798.84064 277.9278Q799.15314 277.70905 799.52814 277.70905Q800.0594 277.70905 800.60626 278.03717L800.2469 279.02155Q799.85626 278.78717 799.48126 278.78717Q799.1219 278.78717 798.84064 279.00592Q798.575 279.20905 798.46564 279.58405Q798.27814 280.14655 798.27814 280.8028L798.27814 284.06842L797.23126 284.06842Z" fill-rule="nonzero"/><path fill="#9e9e9e" d="M765.95 298.81842L767.0594 298.72467Q767.1844 299.53717 767.6219 299.94342Q768.075 300.34967 768.71564 300.34967Q769.46564 300.34967 769.9969 299.77155Q770.52814 299.19342 770.52814 298.25592Q770.52814 297.34967 770.0125 296.83405Q769.5125 296.3028 768.6844 296.3028Q768.1844 296.3028 767.7625 296.53717Q767.35626 296.77155 767.1219 297.13092L766.1375 297.00592L766.96564 292.59967L771.2469 292.59967L771.2469 293.59967L767.8094 293.59967L767.35626 295.91217Q768.1219 295.3653 768.96564 295.3653Q770.09064 295.3653 770.85626 296.14655Q771.6375 296.9278 771.6375 298.16217Q771.6375 299.31842 770.96564 300.1778Q770.1375 301.20905 768.71564 301.20905Q767.54376 301.20905 766.79376 300.5528Q766.0594 299.89655 765.95 298.81842ZM772.95 296.83405Q772.95 295.3028 773.2625 294.38092Q773.575 293.44342 774.1844 292.94342Q774.8094 292.44342 775.7469 292.44342Q776.4344 292.44342 776.95 292.72467Q777.48126 293.00592 777.825 293.53717Q778.16876 294.0528 778.35626 294.8028Q778.54376 295.5528 778.54376 296.83405Q778.54376 298.34967 778.23126 299.27155Q777.9344 300.19342 777.3094 300.70905Q776.7 301.20905 775.7469 301.20905Q774.5125 301.20905 773.79376 300.31842Q772.95 299.25592 772.95 296.83405ZM774.02814 296.83405Q774.02814 298.94342 774.52814 299.64655Q775.02814 300.34967 775.7469 300.34967Q776.48126 300.34967 776.96564 299.64655Q777.46564 298.94342 777.46564 296.83405Q777.46564 294.70905 776.96564 294.02155Q776.48126 293.31842 775.73126 293.31842Q775.0125 293.31842 774.575 293.9278Q774.02814 294.70905 774.02814 296.83405ZM780.54376 301.06842L780.54376 299.8653L781.7469 299.8653L781.7469 301.06842L780.54376 301.06842ZM786.91876 301.06842L785.8719 301.06842L785.8719 294.34967Q785.48126 294.70905 784.85626 295.08405Q784.2469 295.44342 783.7625 295.6153L783.7625 294.59967Q784.6375 294.1778 785.29376 293.59967Q785.96564 293.00592 786.2469 292.44342L786.91876 292.44342L786.91876 301.06842ZM790.15314 294.53717Q790.15314 293.6153 790.60626 292.97467Q791.075 292.33405 791.95 292.33405Q792.7625 292.33405 793.29376 292.91217Q793.825 293.4903 793.825 294.59967Q793.825 295.69342 793.27814 296.28717Q792.7469 296.8653 791.96564 296.8653Q791.1844 296.8653 790.66876 296.28717Q790.15314 295.70905 790.15314 294.53717ZM791.98126 293.0528Q791.59064 293.0528 791.325 293.39655Q791.075 293.7403 791.075 294.64655Q791.075 295.47467 791.325 295.81842Q791.59064 296.14655 791.98126 296.14655Q792.3875 296.14655 792.6375 295.8028Q792.90314 295.45905 792.90314 294.56842Q792.90314 293.72467 792.6375 293.39655Q792.3719 293.0528 791.98126 293.0528ZM791.98126 301.38092L796.6844 292.33405L797.54376 292.33405L792.85626 301.38092L791.98126 301.38092ZM795.7 299.0528Q795.7 298.13092 796.15314 297.4903Q796.6219 296.84967 797.5125 296.84967Q798.325 296.84967 798.85626 297.4278Q799.3875 297.9903 799.3875 299.1153Q799.3875 300.20905 798.84064 300.8028Q798.3094 301.38092 797.5125 301.38092Q796.7469 301.38092 796.21564 300.8028Q795.7 300.22467 795.7 299.0528ZM797.54376 297.56842Q797.1375 297.56842 796.8719 297.91217Q796.6219 298.25592 796.6219 299.16217Q796.6219 299.97467 796.8875 300.31842Q797.15314 300.66217 797.54376 300.66217Q797.9344 300.66217 798.2 300.31842Q798.46564 299.97467 798.46564 299.06842Q798.46564 298.2403 798.2 297.91217Q797.9344 297.56842 797.54376 297.56842Z" fill-rule="nonzero"/><path stroke="#757575" stroke-width="1.0" stroke-linecap="butt" d="M800.45 288.56842L616.68335 288.56842L600.7975 288.56842" fill-rule="nonzero"/><path fill="#9e9e9e" d="M602.7975 288.56842C602.7975 287.46387 601.90204 286.56842 600.7975 286.56842C599.6929 286.56842 598.7975 287.46387 598.7975 288.56842C598.7975 289.673 599.6929 290.56842 600.7975 290.56842C601.90204 290.56842 602.7975 289.673 602.7975 288.56842" fill-rule="nonzero"/><path fill="#999999" d="M362.73438 66.53438L364.0625 66.87813Q363.64062 68.50313 362.54688 69.3625Q361.46875 70.22188 359.90625 70.22188Q358.28125 70.22188 357.26562 69.56563Q356.25 68.89375 355.71875 67.64375Q355.20312 66.39375 355.20312 64.95625Q355.20312 63.393753 355.79688 62.237503Q356.39062 61.065628 357.5 60.471878Q358.60938 59.862503 359.92188 59.862503Q361.4375 59.862503 362.45312 60.628128Q363.48438 61.393753 363.89062 62.768753L362.57812 63.081253Q362.23438 61.987503 361.5625 61.487503Q360.90625 60.987503 359.90625 60.987503Q358.75 60.987503 357.96875 61.550003Q357.1875 62.096878 356.875 63.034378Q356.5625 63.971878 356.5625 64.95625Q356.5625 66.2375 356.9375 67.19063Q357.3125 68.14375 358.09375 68.6125Q358.875 69.08125 359.79688 69.08125Q360.90625 69.08125 361.67188 68.44063Q362.45312 67.8 362.73438 66.53438ZM370.15625 69.15938Q369.48438 69.7375 368.84375 69.9875Q368.21875 70.22188 367.48438 70.22188Q366.29688 70.22188 365.64062 69.64375Q365.0 69.05 365.0 68.12813Q365.0 67.59688 365.23438 67.15938Q365.48438 66.72188 365.875 66.45625Q366.28125 66.19063 366.76562 66.05Q367.125 65.95625 367.85938 65.8625Q369.35938 65.69063 370.0625 65.44063Q370.0625 65.19063 370.0625 65.12813Q370.0625 64.3625 369.71875 64.06563Q369.25 63.643753 368.3125 63.643753Q367.45312 63.643753 367.03125 63.956253Q366.625 64.25313 366.42188 65.01875L365.21875 64.8625Q365.375 64.08125 365.75 63.612503Q366.14062 63.143753 366.84375 62.893753Q367.5625 62.628128 368.5 62.628128Q369.42188 62.628128 370.0 62.846878Q370.57812 63.065628 370.84375 63.393753Q371.125 63.721878 371.23438 64.2375Q371.29688 64.55 371.29688 65.3625L371.29688 67.00313Q371.29688 68.72188 371.375 69.175Q371.45312 69.62813 371.6875 70.05L370.40625 70.05Q370.21875 69.65938 370.15625 69.15938ZM370.0625 66.40938Q369.39062 66.675 368.04688 66.87813Q367.29688 66.9875 366.96875 67.12813Q366.65625 67.25313 366.48438 67.51875Q366.3125 67.78438 366.3125 68.09688Q366.3125 68.59688 366.6875 68.925Q367.0625 69.25313 367.78125 69.25313Q368.5 69.25313 369.04688 68.94063Q369.59375 68.62813 369.85938 68.08125Q370.0625 67.675 370.0625 66.8625L370.0625 66.40938ZM372.9375 67.87813L374.14062 67.69063Q374.25 68.425 374.71875 68.81563Q375.1875 69.20625 376.03125 69.20625Q376.875 69.20625 377.28125 68.8625Q377.70312 68.51875 377.70312 68.05Q377.70312 67.62813 377.32812 67.39375Q377.07812 67.22188 376.07812 66.97188Q374.71875 66.62813 374.1875 66.37813Q373.67188 66.12813 373.40625 65.69063Q373.14062 65.25313 373.14062 64.72188Q373.14062 64.2375 373.35938 63.831253Q373.57812 63.409378 373.96875 63.128128Q374.25 62.925003 374.73438 62.784378Q375.23438 62.628128 375.8125 62.628128Q376.65625 62.628128 377.29688 62.878128Q377.95312 63.112503 378.26562 63.534378Q378.57812 63.956253 378.6875 64.65938L377.48438 64.83125Q377.40625 64.26875 377.0 63.956253Q376.60938 63.643753 375.89062 63.643753Q375.04688 63.643753 374.6875 63.925003Q374.32812 64.19063 374.32812 64.58125Q374.32812 64.81563 374.46875 65.00313Q374.625 65.20625 374.95312 65.33125Q375.125 65.39375 376.03125 65.64375Q377.34375 66.00313 377.85938 66.22188Q378.375 66.44063 378.65625 66.8625Q378.95312 67.28438 378.95312 67.90938Q378.95312 68.53438 378.59375 69.08125Q378.25 69.6125 377.5625 69.925Q376.89062 70.22188 376.03125 70.22188Q374.625 70.22188 373.875 69.62813Q373.14062 69.03438 372.9375 67.87813ZM385.1875 70.05L385.1875 68.9875Q384.32812 70.22188 382.875 70.22188Q382.23438 70.22188 381.67188 69.97188Q381.125 69.72188 380.84375 69.34688Q380.57812 68.97188 380.46875 68.44063Q380.39062 68.08125 380.39062 67.28438L380.39062 62.784378L381.625 62.784378L381.625 66.81563Q381.625 67.78438 381.70312 68.1125Q381.8125 68.59688 382.1875 68.87813Q382.5625 69.15938 383.125 69.15938Q383.67188 69.15938 384.15625 68.87813Q384.64062 68.58125 384.84375 68.09688Q385.04688 67.6125 385.04688 66.675L385.04688 62.784378L386.28125 62.784378L386.28125 70.05L385.1875 70.05ZM393.15625 69.15938Q392.48438 69.7375 391.84375 69.9875Q391.21875 70.22188 390.48438 70.22188Q389.29688 70.22188 388.64062 69.64375Q388.0 69.05 388.0 68.12813Q388.0 67.59688 388.23438 67.15938Q388.48438 66.72188 388.875 66.45625Q389.28125 66.19063 389.76562 66.05Q390.125 65.95625 390.85938 65.8625Q392.35938 65.69063 393.0625 65.44063Q393.0625 65.19063 393.0625 65.12813Q393.0625 64.3625 392.71875 64.06563Q392.25 63.643753 391.3125 63.643753Q390.45312 63.643753 390.03125 63.956253Q389.625 64.25313 389.42188 65.01875L388.21875 64.8625Q388.375 64.08125 388.75 63.612503Q389.14062 63.143753 389.84375 62.893753Q390.5625 62.628128 391.5 62.628128Q392.42188 62.628128 393.0 62.846878Q393.57812 63.065628 393.84375 63.393753Q394.125 63.721878 394.23438 64.2375Q394.29688 64.55 394.29688 65.3625L394.29688 67.00313Q394.29688 68.72188 394.375 69.175Q394.45312 69.62813 394.6875 70.05L393.40625 70.05Q393.21875 69.65938 393.15625 69.15938ZM393.0625 66.40938Q392.39062 66.675 391.04688 66.87813Q390.29688 66.9875 389.96875 67.12813Q389.65625 67.25313 389.48438 67.51875Q389.3125 67.78438 389.3125 68.09688Q389.3125 68.59688 389.6875 68.925Q390.0625 69.25313 390.78125 69.25313Q391.5 69.25313 392.04688 68.94063Q392.59375 68.62813 392.85938 68.08125Q393.0625 67.675 393.0625 66.8625L393.0625 66.40938ZM396.39062 70.05L396.39062 60.034378L397.625 60.034378L397.625 70.05L396.39062 70.05ZM405.4375 70.05L402.67188 62.784378L403.98438 62.784378L405.53125 67.14375Q405.78125 67.84688 406.0 68.59688Q406.17188 68.01875 406.45312 67.22188L408.07812 62.784378L409.34375 62.784378L406.59375 70.05L405.4375 70.05ZM409.9375 67.87813L411.14062 67.69063Q411.25 68.425 411.71875 68.81563Q412.1875 69.20625 413.03125 69.20625Q413.875 69.20625 414.28125 68.8625Q414.70312 68.51875 414.70312 68.05Q414.70312 67.62813 414.32812 67.39375Q414.07812 67.22188 413.07812 66.97188Q411.71875 66.62813 411.1875 66.37813Q410.67188 66.12813 410.40625 65.69063Q410.14062 65.25313 410.14062 64.72188Q410.14062 64.2375 410.35938 63.831253Q410.57812 63.409378 410.96875 63.128128Q411.25 62.925003 411.73438 62.784378Q412.23438 62.628128 412.8125 62.628128Q413.65625 62.628128 414.29688 62.878128Q414.95312 63.112503 415.26562 63.534378Q415.57812 63.956253 415.6875 64.65938L414.48438 64.83125Q414.40625 64.26875 414.0 63.956253Q413.60938 63.643753 412.89062 63.643753Q412.04688 63.643753 411.6875 63.925003Q411.32812 64.19063 411.32812 64.58125Q411.32812 64.81563 411.46875 65.00313Q411.625 65.20625 411.95312 65.33125Q412.125 65.39375 413.03125 65.64375Q414.34375 66.00313 414.85938 66.22188Q415.375 66.44063 415.65625 66.8625Q415.95312 67.28438 415.95312 67.90938Q415.95312 68.53438 415.59375 69.08125Q415.25 69.6125 414.5625 69.925Q413.89062 70.22188 413.03125 70.22188Q411.625 70.22188 410.875 69.62813Q410.14062 69.03438 409.9375 67.87813ZM421.54688 70.05L421.54688 60.034378L423.53125 60.034378L425.90625 67.12813Q426.23438 68.1125 426.39062 68.6125Q426.5625 68.06563 426.92188 67.00313L429.3125 60.034378L431.10938 60.034378L431.10938 70.05L429.82812 70.05L429.82812 61.659378L426.90625 70.05L425.71875 70.05L422.8125 61.518753L422.8125 70.05L421.54688 70.05ZM437.39062 67.70625L438.67188 67.8625Q438.35938 68.9875 437.54688 69.6125Q436.73438 70.22188 435.46875 70.22188Q433.875 70.22188 432.9375 69.2375Q432.01562 68.25313 432.01562 66.4875Q432.01562 64.64375 432.95312 63.643753Q433.90625 62.628128 435.40625 62.628128Q436.85938 62.628128 437.78125 63.628128Q438.70312 64.6125 438.70312 66.40938Q438.70312 66.51875 438.70312 66.7375L433.28125 66.7375Q433.35938 67.925 433.95312 68.56563Q434.5625 69.20625 435.48438 69.20625Q436.15625 69.20625 436.625 68.84688Q437.10938 68.4875 437.39062 67.70625ZM433.35938 65.72188L437.40625 65.72188Q437.32812 64.8 436.9375 64.34688Q436.35938 63.643753 435.42188 63.643753Q434.5625 63.643753 433.98438 64.20625Q433.42188 64.76875 433.35938 65.72188ZM440.42188 70.05L440.42188 62.784378L441.53125 62.784378L441.53125 63.815628Q441.85938 63.268753 442.42188 62.956253Q443.0 62.628128 443.71875 62.628128Q444.53125 62.628128 445.04688 62.971878Q445.5625 63.300003 445.78125 63.893753Q446.64062 62.628128 448.01562 62.628128Q449.09375 62.628128 449.67188 63.221878Q450.26562 63.815628 450.26562 65.06563L450.26562 70.05L449.03125 70.05L449.03125 65.47188Q449.03125 64.7375 448.90625 64.40938Q448.79688 64.08125 448.48438 63.893753Q448.17188 63.690628 447.75 63.690628Q446.98438 63.690628 446.46875 64.20625Q445.96875 64.70625 445.96875 65.83125L445.96875 70.05L444.73438 70.05L444.73438 65.33125Q444.73438 64.51875 444.4375 64.1125Q444.14062 63.690628 443.45312 63.690628Q442.9375 63.690628 442.48438 63.971878Q442.04688 64.2375 441.84375 64.76875Q441.65625 65.28438 441.65625 66.28438L441.65625 70.05L440.42188 70.05ZM452.5625 70.05L451.42188 70.05L451.42188 60.034378L452.64062 60.034378L452.64062 63.596878Q453.42188 62.628128 454.64062 62.628128Q455.3125 62.628128 455.90625 62.893753Q456.5 63.159378 456.89062 63.659378Q457.28125 64.14375 457.5 64.83125Q457.71875 65.51875 457.71875 66.31563Q457.71875 68.175 456.78125 69.20625Q455.85938 70.22188 454.57812 70.22188Q453.29688 70.22188 452.5625 69.14375L452.5625 70.05ZM452.54688 66.3625Q452.54688 67.675 452.90625 68.25313Q453.48438 69.20625 454.46875 69.20625Q455.28125 69.20625 455.85938 68.50313Q456.45312 67.8 456.45312 66.40938Q456.45312 64.9875 455.89062 64.31563Q455.32812 63.643753 454.53125 63.643753Q453.71875 63.643753 453.125 64.34688Q452.54688 65.03438 452.54688 66.3625ZM464.39062 67.70625L465.67188 67.8625Q465.35938 68.9875 464.54688 69.6125Q463.73438 70.22188 462.46875 70.22188Q460.875 70.22188 459.9375 69.2375Q459.01562 68.25313 459.01562 66.4875Q459.01562 64.64375 459.95312 63.643753Q460.90625 62.628128 462.40625 62.628128Q463.85938 62.628128 464.78125 63.628128Q465.70312 64.6125 465.70312 66.40938Q465.70312 66.51875 465.70312 66.7375L460.28125 66.7375Q460.35938 67.925 460.95312 68.56563Q461.5625 69.20625 462.48438 69.20625Q463.15625 69.20625 463.625 68.84688Q464.10938 68.4875 464.39062 67.70625ZM460.35938 65.72188L464.40625 65.72188Q464.32812 64.8 463.9375 64.34688Q463.35938 63.643753 462.42188 63.643753Q461.5625 63.643753 460.98438 64.20625Q460.42188 64.76875 460.35938 65.72188ZM467.40625 70.05L467.40625 62.784378L468.51562 62.784378L468.51562 63.893753Q468.9375 63.112503 469.29688 62.878128Q469.65625 62.628128 470.09375 62.628128Q470.71875 62.628128 471.35938 63.018753L470.9375 64.15938Q470.48438 63.893753 470.03125 63.893753Q469.625 63.893753 469.29688 64.14375Q468.98438 64.37813 468.84375 64.81563Q468.64062 65.47188 468.64062 66.25313L468.64062 70.05L467.40625 70.05Z" fill-rule="nonzero"/><path fill="#757575" d="M313.76562 39.534374L315.65625 40.003124Q315.0625 42.346874 313.51562 43.58125Q311.96875 44.8 309.71875 44.8Q307.40625 44.8 305.95312 43.8625Q304.51562 42.909374 303.75 41.128124Q303.0 39.33125 303.0 37.284374Q303.0 35.05 303.84375 33.39375Q304.70312 31.721874 306.28125 30.8625Q307.85938 29.9875 309.75 29.9875Q311.90625 29.9875 313.35938 31.08125Q314.82812 32.175 315.40625 34.159374L313.54688 34.596874Q313.04688 33.034374 312.09375 32.33125Q311.15625 31.6125 309.71875 31.6125Q308.0625 31.6125 306.95312 32.409374Q305.84375 33.190624 305.39062 34.534374Q304.95312 35.8625 304.95312 37.26875Q304.95312 39.096874 305.48438 40.471874Q306.01562 41.83125 307.14062 42.503124Q308.26562 43.175 309.5625 43.175Q311.15625 43.175 312.26562 42.253124Q313.375 41.33125 313.76562 39.534374ZM317.28125 44.55L317.28125 30.2375L319.03125 30.2375L319.03125 44.55L317.28125 44.55ZM321.23438 48.55L321.04688 46.89375Q321.625 47.05 322.04688 47.05Q322.64062 47.05 322.98438 46.846874Q323.34375 46.659374 323.5625 46.315624Q323.73438 46.05 324.10938 45.003124Q324.15625 44.846874 324.26562 44.565624L320.32812 34.175L322.21875 34.175L324.375 40.190624Q324.79688 41.33125 325.125 42.58125Q325.4375 41.378124 325.84375 40.221874L328.0625 34.175L329.82812 34.175L325.875 44.721874Q325.25 46.440624 324.89062 47.08125Q324.42188 47.95625 323.8125 48.346874Q323.21875 48.753124 322.375 48.753124Q321.85938 48.753124 321.23438 48.55ZM338.09375 40.753124L339.8125 40.971874Q339.53125 42.76875 338.35938 43.784374Q337.20312 44.784374 335.5 44.784374Q333.375 44.784374 332.07812 43.39375Q330.78125 42.003124 330.78125 39.409374Q330.78125 37.721874 331.32812 36.471874Q331.89062 35.20625 333.03125 34.58125Q334.17188 33.940624 335.51562 33.940624Q337.20312 33.940624 338.26562 34.8Q339.34375 35.659374 339.65625 37.221874L337.9375 37.4875Q337.70312 36.440624 337.07812 35.925Q336.45312 35.39375 335.57812 35.39375Q334.25 35.39375 333.42188 36.346874Q332.59375 37.3 332.59375 39.346874Q332.59375 41.440624 333.39062 42.39375Q334.1875 43.33125 335.48438 43.33125Q336.51562 43.33125 337.20312 42.70625Q337.90625 42.065624 338.09375 40.753124ZM341.28125 44.55L341.28125 30.2375L343.03125 30.2375L343.03125 44.55L341.28125 44.55ZM345.32812 32.253124L345.32812 30.2375L347.09375 30.2375L347.09375 32.253124L345.32812 32.253124ZM345.32812 44.55L345.32812 34.175L347.09375 34.175L347.09375 44.55L345.32812 44.55ZM348.60938 41.45625L350.35938 41.175Q350.5 42.221874 351.17188 42.784374Q351.84375 43.33125 353.04688 43.33125Q354.25 43.33125 354.82812 42.846874Q355.42188 42.346874 355.42188 41.690624Q355.42188 41.096874 354.90625 40.753124Q354.54688 40.51875 353.10938 40.159374Q351.17188 39.659374 350.42188 39.315624Q349.6875 38.95625 349.29688 38.33125Q348.90625 37.690624 348.90625 36.925Q348.90625 36.2375 349.21875 35.64375Q349.54688 35.05 350.09375 34.659374Q350.5 34.3625 351.20312 34.159374Q351.92188 33.940624 352.73438 33.940624Q353.95312 33.940624 354.875 34.3Q355.79688 34.64375 356.23438 35.253124Q356.67188 35.846874 356.84375 36.846874L355.125 37.08125Q355.0 36.284374 354.4375 35.846874Q353.875 35.39375 352.85938 35.39375Q351.64062 35.39375 351.125 35.8Q350.60938 36.190624 350.60938 36.721874Q350.60938 37.065624 350.82812 37.346874Q351.03125 37.628124 351.5 37.815624Q351.76562 37.909374 353.04688 38.253124Q354.92188 38.753124 355.65625 39.08125Q356.39062 39.39375 356.8125 40.003124Q357.23438 40.596874 357.23438 41.503124Q357.23438 42.378124 356.71875 43.159374Q356.20312 43.940624 355.23438 44.3625Q354.26562 44.784374 353.04688 44.784374Q351.03125 44.784374 349.96875 43.940624Q348.90625 43.096874 348.60938 41.45625ZM363.15625 42.971874L363.40625 44.534374Q362.67188 44.690624 362.07812 44.690624Q361.125 44.690624 360.59375 44.39375Q360.07812 44.08125 359.85938 43.596874Q359.64062 43.096874 359.64062 41.51875L359.64062 35.55L358.35938 35.55L358.35938 34.175L359.64062 34.175L359.64062 31.6125L361.39062 30.55L361.39062 34.175L363.15625 34.175L363.15625 35.55L361.39062 35.55L361.39062 41.6125Q361.39062 42.3625 361.48438 42.58125Q361.57812 42.784374 361.78125 42.925Q362.0 43.05 362.39062 43.05Q362.67188 43.05 363.15625 42.971874ZM365.32812 32.253124L365.32812 30.2375L367.09375 30.2375L367.09375 32.253124L365.32812 32.253124ZM365.32812 44.55L365.32812 34.175L367.09375 34.175L367.09375 44.55L365.32812 44.55ZM376.09375 40.753124L377.8125 40.971874Q377.53125 42.76875 376.35938 43.784374Q375.20312 44.784374 373.5 44.784374Q371.375 44.784374 370.07812 43.39375Q368.78125 42.003124 368.78125 39.409374Q368.78125 37.721874 369.32812 36.471874Q369.89062 35.20625 371.03125 34.58125Q372.17188 33.940624 373.51562 33.940624Q375.20312 33.940624 376.26562 34.8Q377.34375 35.659374 377.65625 37.221874L375.9375 37.4875Q375.70312 36.440624 375.07812 35.925Q374.45312 35.39375 373.57812 35.39375Q372.25 35.39375 371.42188 36.346874Q370.59375 37.3 370.59375 39.346874Q370.59375 41.440624 371.39062 42.39375Q372.1875 43.33125 373.48438 43.33125Q374.51562 43.33125 375.20312 42.70625Q375.90625 42.065624 376.09375 40.753124ZM383.96875 44.55L389.46875 30.2375L391.51562 30.2375L397.375 44.55L395.21875 44.55L393.54688 40.20625L387.5625 40.20625L385.98438 44.55L383.96875 44.55ZM388.10938 38.675L392.95312 38.675L391.46875 34.70625Q390.78125 32.89375 390.45312 31.7375Q390.17188 33.1125 389.67188 34.471874L388.10938 38.675ZM398.3125 44.55L398.3125 34.175L399.90625 34.175L399.90625 35.659374Q401.04688 33.940624 403.20312 33.940624Q404.14062 33.940624 404.92188 34.284374Q405.71875 34.6125 406.10938 35.159374Q406.5 35.70625 406.65625 36.45625Q406.75 36.95625 406.75 38.175L406.75 44.55L404.98438 44.55L404.98438 38.2375Q404.98438 37.159374 404.78125 36.628124Q404.57812 36.096874 404.04688 35.784374Q403.53125 35.471874 402.82812 35.471874Q401.70312 35.471874 400.89062 36.190624Q400.07812 36.89375 400.07812 38.878124L400.07812 44.55L398.3125 44.55ZM408.3125 44.55L408.3125 34.175L409.90625 34.175L409.90625 35.659374Q411.04688 33.940624 413.20312 33.940624Q414.14062 33.940624 414.92188 34.284374Q415.71875 34.6125 416.10938 35.159374Q416.5 35.70625 416.65625 36.45625Q416.75 36.95625 416.75 38.175L416.75 44.55L414.98438 44.55L414.98438 38.2375Q414.98438 37.159374 414.78125 36.628124Q414.57812 36.096874 414.04688 35.784374Q413.53125 35.471874 412.82812 35.471874Q411.70312 35.471874 410.89062 36.190624Q410.07812 36.89375 410.07812 38.878124L410.07812 44.55L408.3125 44.55ZM425.10938 44.55L425.10938 43.01875Q423.90625 44.784374 421.82812 44.784374Q420.90625 44.784374 420.10938 44.440624Q419.3125 44.08125 418.92188 43.55Q418.54688 43.01875 418.39062 42.2375Q418.28125 41.721874 418.28125 40.596874L418.28125 34.175L420.03125 34.175L420.03125 39.925Q420.03125 41.3 420.14062 41.784374Q420.3125 42.471874 420.84375 42.878124Q421.39062 43.26875 422.17188 43.26875Q422.96875 43.26875 423.65625 42.8625Q424.35938 42.45625 424.64062 41.76875Q424.9375 41.065624 424.9375 39.7375L424.9375 34.175L426.6875 34.175L426.6875 44.55L425.10938 44.55ZM435.09375 43.26875Q434.10938 44.096874 433.20312 44.440624Q432.29688 44.784374 431.26562 44.784374Q429.5625 44.784374 428.64062 43.95625Q427.71875 43.1125 427.71875 41.815624Q427.71875 41.05 428.0625 40.425Q428.42188 39.8 428.98438 39.425Q429.54688 39.034374 430.25 38.83125Q430.76562 38.70625 431.8125 38.565624Q433.9375 38.315624 434.9375 37.971874Q434.95312 37.6125 434.95312 37.503124Q434.95312 36.440624 434.45312 35.9875Q433.78125 35.39375 432.45312 35.39375Q431.20312 35.39375 430.60938 35.83125Q430.03125 36.26875 429.75 37.378124L428.03125 37.14375Q428.26562 36.034374 428.79688 35.3625Q429.32812 34.675 430.34375 34.315624Q431.35938 33.940624 432.70312 33.940624Q434.03125 33.940624 434.85938 34.253124Q435.6875 34.565624 436.07812 35.05Q436.46875 35.51875 436.625 36.2375Q436.71875 36.690624 436.71875 37.8625L436.71875 40.20625Q436.71875 42.659374 436.82812 43.315624Q436.9375 43.95625 437.28125 44.55L435.4375 44.55Q435.17188 44.003124 435.09375 43.26875ZM434.9375 39.346874Q433.98438 39.7375 432.0625 40.003124Q430.98438 40.159374 430.53125 40.3625Q430.09375 40.55 429.84375 40.925Q429.59375 41.3 429.59375 41.76875Q429.59375 42.471874 430.125 42.940624Q430.65625 43.409374 431.6875 43.409374Q432.70312 43.409374 433.48438 42.971874Q434.28125 42.51875 434.65625 41.753124Q434.9375 41.14375 434.9375 39.9875L434.9375 39.346874ZM439.28125 44.55L439.28125 30.2375L441.03125 30.2375L441.03125 44.55L439.28125 44.55ZM449.57812 44.55L449.57812 30.2375L455.92188 30.2375Q457.82812 30.2375 458.82812 30.628124Q459.82812 31.003124 460.42188 31.9875Q461.01562 32.95625 461.01562 34.14375Q461.01562 35.659374 460.03125 36.70625Q459.04688 37.753124 456.98438 38.034374Q457.73438 38.39375 458.125 38.753124Q458.95312 39.503124 459.70312 40.659374L462.1875 44.55L459.8125 44.55L457.90625 41.565624Q457.07812 40.284374 456.54688 39.596874Q456.01562 38.909374 455.57812 38.64375Q455.15625 38.3625 454.71875 38.253124Q454.39062 38.190624 453.67188 38.190624L451.46875 38.190624L451.46875 44.55L449.57812 44.55ZM451.46875 36.55L455.54688 36.55Q456.84375 36.55 457.5625 36.284374Q458.29688 36.01875 458.67188 35.425Q459.0625 34.83125 459.0625 34.14375Q459.0625 33.128124 458.32812 32.471874Q457.59375 31.815624 456.0 31.815624L451.46875 31.815624L451.46875 36.55ZM470.42188 41.20625L472.23438 41.440624Q471.8125 43.01875 470.64062 43.909374Q469.48438 44.784374 467.67188 44.784374Q465.40625 44.784374 464.0625 43.39375Q462.73438 41.9875 462.73438 39.45625Q462.73438 36.83125 464.07812 35.39375Q465.42188 33.940624 467.57812 33.940624Q469.65625 33.940624 470.96875 35.3625Q472.29688 36.76875 472.29688 39.346874Q472.29688 39.503124 472.28125 39.815624L464.54688 39.815624Q464.64062 41.51875 465.51562 42.425Q466.39062 43.33125 467.6875 43.33125Q468.65625 43.33125 469.32812 42.83125Q470.01562 42.315624 470.42188 41.20625ZM464.64062 38.3625L470.4375 38.3625Q470.32812 37.065624 469.78125 36.409374Q468.9375 35.39375 467.59375 35.39375Q466.39062 35.39375 465.5625 36.20625Q464.73438 37.003124 464.64062 38.3625ZM477.20312 44.55L473.25 34.175L475.10938 34.175L477.34375 40.39375Q477.70312 41.39375 478.0 42.471874Q478.23438 41.659374 478.65625 40.503124L480.95312 34.175L482.76562 34.175L478.84375 44.55L477.20312 44.55ZM490.42188 41.20625L492.23438 41.440624Q491.8125 43.01875 490.64062 43.909374Q489.48438 44.784374 487.67188 44.784374Q485.40625 44.784374 484.0625 43.39375Q482.73438 41.9875 482.73438 39.45625Q482.73438 36.83125 484.07812 35.39375Q485.42188 33.940624 487.57812 33.940624Q489.65625 33.940624 490.96875 35.3625Q492.29688 36.76875 492.29688 39.346874Q492.29688 39.503124 492.28125 39.815624L484.54688 39.815624Q484.64062 41.51875 485.51562 42.425Q486.39062 43.33125 487.6875 43.33125Q488.65625 43.33125 489.32812 42.83125Q490.01562 42.315624 490.42188 41.20625ZM484.64062 38.3625L490.4375 38.3625Q490.32812 37.065624 489.78125 36.409374Q488.9375 35.39375 487.59375 35.39375Q486.39062 35.39375 485.5625 36.20625Q484.73438 37.003124 484.64062 38.3625ZM494.3125 44.55L494.3125 34.175L495.90625 34.175L495.90625 35.659374Q497.04688 33.940624 499.20312 33.940624Q500.14062 33.940624 500.92188 34.284374Q501.71875 34.6125 502.10938 35.159374Q502.5 35.70625 502.65625 36.45625Q502.75 36.95625 502.75 38.175L502.75 44.55L500.98438 44.55L500.98438 38.2375Q500.98438 37.159374 500.78125 36.628124Q500.57812 36.096874 500.04688 35.784374Q499.53125 35.471874 498.82812 35.471874Q497.70312 35.471874 496.89062 36.190624Q496.07812 36.89375 496.07812 38.878124L496.07812 44.55L494.3125 44.55ZM511.10938 44.55L511.10938 43.01875Q509.90625 44.784374 507.82812 44.784374Q506.90625 44.784374 506.10938 44.440624Q505.3125 44.08125 504.92188 43.55Q504.54688 43.01875 504.39062 42.2375Q504.28125 41.721874 504.28125 40.596874L504.28125 34.175L506.03125 34.175L506.03125 39.925Q506.03125 41.3 506.14062 41.784374Q506.3125 42.471874 506.84375 42.878124Q507.39062 43.26875 508.17188 43.26875Q508.96875 43.26875 509.65625 42.8625Q510.35938 42.45625 510.64062 41.76875Q510.9375 41.065624 510.9375 39.7375L510.9375 34.175L512.6875 34.175L512.6875 44.55L511.10938 44.55ZM521.4219 41.20625L523.2344 41.440624Q522.8125 43.01875 521.6406 43.909374Q520.4844 44.784374 518.6719 44.784374Q516.40625 44.784374 515.0625 43.39375Q513.7344 41.9875 513.7344 39.45625Q513.7344 36.83125 515.0781 35.39375Q516.4219 33.940624 518.5781 33.940624Q520.65625 33.940624 521.96875 35.3625Q523.2969 36.76875 523.2969 39.346874Q523.2969 39.503124 523.28125 39.815624L515.5469 39.815624Q515.6406 41.51875 516.5156 42.425Q517.3906 43.33125 518.6875 43.33125Q519.65625 43.33125 520.3281 42.83125Q521.0156 42.315624 521.4219 41.20625ZM515.6406 38.3625L521.4375 38.3625Q521.3281 37.065624 520.78125 36.409374Q519.9375 35.39375 518.59375 35.39375Q517.3906 35.39375 516.5625 36.20625Q515.7344 37.003124 515.6406 38.3625Z" fill-rule="nonzero"/></svg>